<?xml version="1.0" encoding="iso-8859-1"?>
<!-- Generator: Adobe Illustrator 19.0.0, SVG Export Plug-In . SVG Version: 6.00 Build 0)  -->
<svg version="1.1" id="Layer_1" xmlns="http://www.w3.org/2000/svg" xmlns:xlink="http://www.w3.org/1999/xlink" x="0px" y="0px"
	 viewBox="0 0 512 512" style="enable-background:new 0 0 512 512;" xml:space="preserve">
<path style="fill:#E04F5F;" d="M452.656,273.6c1.768-18.704,0.856-37.56-2.712-56C428.624,109.768,324.04,39.536,216.16,60.608
	l13.72,69.792c69.344-13.544,136.56,31.608,150.256,100.92c2.68,13.984,2.984,28.32,0.896,42.4l-56.56,0.096L418.4,367.56
	l93.6-94.056L452.656,273.6z"/>
<path style="fill:#FFD07D;" d="M128.96,280.68c-2.736-14.232-3.008-28.824-0.8-43.144l59.368-0.104L93.6,143.704L0,237.76
	l56.504-0.096c-1.864,18.944-0.968,38.048,2.648,56.736C80.48,402.232,185.064,472.464,292.944,451.392L279.2,381.6
	C209.864,395.128,142.656,349.984,128.96,280.68z"/>
<g>
</g>
<g>
</g>
<g>
</g>
<g>
</g>
<g>
</g>
<g>
</g>
<g>
</g>
<g>
</g>
<g>
</g>
<g>
</g>
<g>
</g>
<g>
</g>
<g>
</g>
<g>
</g>
<g>
</g>
</svg>
